<svg width="40" height="40" viewBox="0 0 40 40" fill="none" xmlns="http://www.w3.org/2000/svg">
<path d="M11.6666 36.6667C10.75 36.6667 9.96551 36.3406 9.31329 35.6883C8.65996 35.035 8.33329 34.25 8.33329 33.3333C8.33329 32.4167 8.65996 31.6317 9.31329 30.9783C9.96551 30.3261 10.75 30 11.6666 30C12.5833 30 13.3677 30.3261 14.02 30.9783C14.6733 31.6317 15 32.4167 15 33.3333C15 34.25 14.6733 35.035 14.02 35.6883C13.3677 36.3406 12.5833 36.6667 11.6666 36.6667ZM28.3333 36.6667C27.4166 36.6667 26.6322 36.3406 25.98 35.6883C25.3266 35.035 25 34.25 25 33.3333C25 32.4167 25.3266 31.6317 25.98 30.9783C26.6322 30.3261 27.4166 30 28.3333 30C29.25 30 30.035 30.3261 30.6883 30.9783C31.3405 31.6317 31.6666 32.4167 31.6666 33.3333C31.6666 34.25 31.3405 35.035 30.6883 35.6883C30.035 36.3406 29.25 36.6667 28.3333 36.6667ZM10.25 10L14.25 18.3333H25.9166L30.5 10H10.25ZM8.66663 6.66668H33.25C33.8888 6.66668 34.375 6.95112 34.7083 7.52001C35.0416 8.09001 35.0555 8.66668 34.75 9.25001L28.8333 19.9167C28.5277 20.4722 28.1177 20.9028 27.6033 21.2083C27.09 21.5139 26.5277 21.6667 25.9166 21.6667H13.5L11.6666 25H31.6666V28.3333H11.6666C10.4166 28.3333 9.47218 27.7845 8.83329 26.6867C8.1944 25.59 8.16663 24.5 8.74996 23.4167L11 19.3333L4.99996 6.66668H1.66663V3.33334H7.08329L8.66663 6.66668Z" fill="black"/>
</svg>
