<svg width="40" height="40" viewBox="0 0 40 40" fill="none" xmlns="http://www.w3.org/2000/svg">
<path fill-rule="evenodd" clip-rule="evenodd" d="M20 4C15.528 4 11.14 4.36 6.86 5.048C3.986 5.51 2 8.028 2 10.852V21.148C2 23.974 3.986 26.488 6.86 26.952C8.556 27.226 10.27 27.448 12 27.614V34.5C12.0003 34.7965 12.0884 35.0862 12.2532 35.3327C12.4181 35.5791 12.6522 35.7712 12.9262 35.8846C13.2001 35.998 13.5015 36.0277 13.7923 35.9699C14.0831 35.9122 14.3502 35.7695 14.56 35.56L21.72 28.402C22.0018 28.1244 22.3786 27.9643 22.774 27.954C26.247 27.8396 29.7092 27.5056 33.14 26.954C36.014 26.49 38 23.974 38 21.148V10.852C38 8.026 36.014 5.512 33.14 5.048C28.7949 4.34909 24.4009 3.99864 20 4V4ZM20 18C20.5304 18 21.0391 17.7893 21.4142 17.4142C21.7893 17.0391 22 16.5304 22 16C22 15.4696 21.7893 14.9609 21.4142 14.5858C21.0391 14.2107 20.5304 14 20 14C19.4696 14 18.9609 14.2107 18.5858 14.5858C18.2107 14.9609 18 15.4696 18 16C18 16.5304 18.2107 17.0391 18.5858 17.4142C18.9609 17.7893 19.4696 18 20 18V18ZM16 16C16 16.5304 15.7893 17.0391 15.4142 17.4142C15.0391 17.7893 14.5304 18 14 18C13.4696 18 12.9609 17.7893 12.5858 17.4142C12.2107 17.0391 12 16.5304 12 16C12 15.4696 12.2107 14.9609 12.5858 14.5858C12.9609 14.2107 13.4696 14 14 14C14.5304 14 15.0391 14.2107 15.4142 14.5858C15.7893 14.9609 16 15.4696 16 16V16ZM26 18C26.5304 18 27.0391 17.7893 27.4142 17.4142C27.7893 17.0391 28 16.5304 28 16C28 15.4696 27.7893 14.9609 27.4142 14.5858C27.0391 14.2107 26.5304 14 26 14C25.4696 14 24.9609 14.2107 24.5858 14.5858C24.2107 14.9609 24 15.4696 24 16C24 16.5304 24.2107 17.0391 24.5858 17.4142C24.9609 17.7893 25.4696 18 26 18V18Z" fill="black"/>
</svg>
