<svg width="40" height="40" viewBox="0 0 40 40" fill="none" xmlns="http://www.w3.org/2000/svg">
<path d="M11.6667 36.6666C10.7501 36.6666 9.96564 36.3405 9.31341 35.6883C8.66008 35.035 8.33341 34.25 8.33341 33.3333C8.33341 32.4166 8.66008 31.6316 9.31341 30.9783C9.96564 30.3261 10.7501 30 11.6667 30C12.5834 30 13.3679 30.3261 14.0201 30.9783C14.6734 31.6316 15.0001 32.4166 15.0001 33.3333C15.0001 34.25 14.6734 35.035 14.0201 35.6883C13.3679 36.3405 12.5834 36.6666 11.6667 36.6666ZM28.3334 36.6666C27.4167 36.6666 26.6323 36.3405 25.9801 35.6883C25.3267 35.035 25.0001 34.25 25.0001 33.3333C25.0001 32.4166 25.3267 31.6316 25.9801 30.9783C26.6323 30.3261 27.4167 30 28.3334 30C29.2501 30 30.0351 30.3261 30.6884 30.9783C31.3406 31.6316 31.6667 32.4166 31.6667 33.3333C31.6667 34.25 31.3406 35.035 30.6884 35.6883C30.0351 36.3405 29.2501 36.6666 28.3334 36.6666ZM8.66675 6.66665H33.2501C33.889 6.66665 34.3751 6.95109 34.7084 7.51998C35.0417 8.08998 35.0556 8.66665 34.7501 9.24998L28.8334 19.9166C28.5279 20.4722 28.1179 20.9028 27.6034 21.2083C27.0901 21.5139 26.5279 21.6666 25.9167 21.6666H13.5001L11.6667 25H31.6667V28.3333H11.6667C10.4167 28.3333 9.4723 27.7844 8.83341 26.6866C8.19453 25.59 8.16675 24.5 8.75008 23.4166L11.0001 19.3333L5.00008 6.66665H1.66675V3.33331H7.08341L8.66675 6.66665Z" fill="black"/>
</svg>
