<svg width="40" height="40" viewBox="0 0 40 40" fill="none" xmlns="http://www.w3.org/2000/svg">
<path d="M14.375 16.25C14.375 16.4158 14.3092 16.5747 14.1919 16.6919C14.0747 16.8092 13.9158 16.875 13.75 16.875C13.5842 16.875 13.4253 16.8092 13.3081 16.6919C13.1908 16.5747 13.125 16.4158 13.125 16.25C13.125 16.0842 13.1908 15.9253 13.3081 15.8081C13.4253 15.6909 13.5842 15.625 13.75 15.625C13.9158 15.625 14.0747 15.6909 14.1919 15.8081C14.3092 15.9253 14.375 16.0842 14.375 16.25ZM14.375 16.25H13.75M20.625 16.25C20.625 16.4158 20.5592 16.5747 20.4419 16.6919C20.3247 16.8092 20.1658 16.875 20 16.875C19.8342 16.875 19.6753 16.8092 19.5581 16.6919C19.4408 16.5747 19.375 16.4158 19.375 16.25C19.375 16.0842 19.4408 15.9253 19.5581 15.8081C19.6753 15.6909 19.8342 15.625 20 15.625C20.1658 15.625 20.3247 15.6909 20.4419 15.8081C20.5592 15.9253 20.625 16.0842 20.625 16.25ZM20.625 16.25H20M26.875 16.25C26.875 16.4158 26.8092 16.5747 26.6919 16.6919C26.5747 16.8092 26.4158 16.875 26.25 16.875C26.0842 16.875 25.9253 16.8092 25.8081 16.6919C25.6908 16.5747 25.625 16.4158 25.625 16.25C25.625 16.0842 25.6908 15.9253 25.8081 15.8081C25.9253 15.6909 26.0842 15.625 26.25 15.625C26.4158 15.625 26.5747 15.6909 26.6919 15.8081C26.8092 15.9253 26.875 16.0842 26.875 16.25ZM26.875 16.25H26.25M3.75 21.2667C3.75 23.9333 5.62167 26.2567 8.26167 26.645C10.0733 26.9117 11.9033 27.1167 13.75 27.26V35L20.7233 28.0283C21.0686 27.6844 21.5328 27.4863 22.02 27.475C25.2727 27.395 28.5175 27.1178 31.7367 26.645C34.3783 26.2567 36.25 23.935 36.25 21.265V11.235C36.25 8.565 34.3783 6.24334 31.7383 5.855C27.8516 5.28453 23.9284 4.99877 20 5C16.0133 5 12.0933 5.29167 8.26167 5.855C5.62167 6.24334 3.75 8.56667 3.75 11.235V21.265V21.2667Z" stroke="black" stroke-width="3" stroke-linecap="round" stroke-linejoin="round"/>
</svg>
