<svg width="40" height="40" viewBox="0 0 40 40" fill="none" xmlns="http://www.w3.org/2000/svg">
<path d="M37.4333 10C36.15 10.5833 34.7666 10.9667 33.3333 11.15C34.8 10.2667 35.9333 8.86667 36.4666 7.18334C35.0833 8.01667 33.55 8.60001 31.9333 8.93334C30.6166 7.50001 28.7666 6.66667 26.6666 6.66667C22.75 6.66667 19.55 9.86667 19.55 13.8167C19.55 14.3833 19.6166 14.9333 19.7333 15.45C13.8 15.15 8.51665 12.3 4.99998 7.98334C4.38332 9.03334 4.03332 10.2667 4.03332 11.5667C4.03332 14.05 5.28332 16.25 7.21665 17.5C6.03332 17.5 4.93332 17.1667 3.96665 16.6667V16.7167C3.96665 20.1833 6.43332 23.0833 9.69998 23.7333C8.65119 24.0204 7.55014 24.0603 6.48332 23.85C6.93599 25.2708 7.82254 26.514 9.01834 27.4049C10.2141 28.2958 11.6591 28.7895 13.15 28.8167C10.6227 30.8174 7.48998 31.8989 4.26665 31.8833C3.69998 31.8833 3.13332 31.85 2.56665 31.7833C5.73332 33.8167 9.49998 35 13.5333 35C26.6666 35 33.8833 24.1 33.8833 14.65C33.8833 14.3333 33.8833 14.0333 33.8666 13.7167C35.2666 12.7167 36.4666 11.45 37.4333 10V10Z" fill="white"/>
</svg>
